<?xml version="1.0" encoding="UTF-8"?>
<svg xmlns="http://www.w3.org/2000/svg" width="128" height="128" viewBox="0 0 128 128" role="img" aria-label="Tickitz logo with transparent background">
  <path d="M 103.5 89.12 L 102.88 90.12 L 102.88 91.38 L 103.38 92 L 104.62 92.75 L 105.5 92.88 L 109.25 92.75 L 110 93.25 L 110 93.88 L 109.25 94.62 L 108.88 95.5 L 107 97.38 L 105.75 99.12 L 103 102.25 L 102.75 103 L 102.88 105 L 104.25 106.12 L 106 106.38 L 109.12 106.38 L 109.25 106.25 L 115.62 106.38 L 117.12 105.88 L 117.88 104.88 L 118 103.75 L 117.75 103 L 117 102.25 L 115.62 101.88 L 112 101.88 L 111.88 101.75 L 110.75 101.88 L 110.12 101.5 L 110.25 100.88 L 112.12 98.75 L 112.38 98.12 L 113.5 96.75 L 114.5 95.88 L 115.12 94.88 L 116.88 92.88 L 117.38 91.62 L 117.38 90.38 L 117.12 89.5 L 116.62 89 L 115.12 88.38 L 112 88.38 L 111.88 88.25 L 110.25 88.25 L 110.12 88.38 L 105.88 88.25 L 104.75 88.38 Z M 82.88 88.12 L 82.5 88.25 L 81.25 89.5 L 80.88 90.5 L 80.88 94.12 L 81 94.25 L 80.88 104.12 L 81.38 105.38 L 81.75 105.75 L 83 106.38 L 84.25 106.38 L 85.5 105.62 L 86 104.62 L 86.12 103.88 L 86.25 92.25 L 86 89.88 L 85.75 89.38 L 84.25 88.25 Z M 36.25 88.12 L 35.12 88.5 L 34.25 89.38 L 34 90.25 L 33.75 101.62 L 33.88 101.75 L 34 104.25 L 34.62 105.5 L 35.62 106.25 L 37.12 106.38 L 38.12 105.88 L 38.75 105.25 L 39.12 104.12 L 39.12 93.38 L 39.25 93.25 L 39.12 91.38 L 39.25 90.88 L 39.12 90.12 L 38.75 89.38 L 37.88 88.38 L 37.38 88.12 Z M 49.5 88 L 48.5 88.25 L 45.25 90.12 L 44.25 91.25 L 43.12 93 L 42.38 94.88 L 42.12 96.25 L 42.12 99 L 43.12 102.12 L 44 103.12 L 44.25 103.75 L 46.38 105.5 L 50.5 106.62 L 52.75 106.62 L 55.62 106 L 57 105.12 L 58.25 103.88 L 58.62 102.88 L 58.62 101.62 L 58.38 101.12 L 57.25 100.12 L 56.25 100.12 L 54.88 100.75 L 53.75 101.62 L 53 101.88 L 50.38 101.75 L 49.75 101.25 L 48.88 100.88 L 48.25 100.25 L 47.5 97.75 L 47.62 96.38 L 48.12 94.75 L 48.5 94.12 L 50 93 L 51.25 92.5 L 52.25 92.62 L 55.62 94.25 L 57.25 94.25 L 57.75 94 L 58.25 93.5 L 58.62 92.5 L 58.62 91.88 L 58.25 90.62 L 57.62 89.75 L 54 88 L 52.88 87.88 Z M 93.38 83.38 L 92.38 83.88 L 91.88 84.38 L 91.5 85.12 L 91.25 86 L 91.25 87.75 L 90.5 88.38 L 89.5 88.5 L 88.62 89.38 L 88.38 89.88 L 88.38 91.25 L 89 92.25 L 89.75 92.75 L 90.75 93 L 91.25 93.62 L 91.25 94.75 L 91.5 95.38 L 91.38 96 L 91.5 101.38 L 92 103.62 L 92.38 104.38 L 93.12 105.12 L 94.75 106.12 L 97.38 106.5 L 98.88 106.38 L 100.5 105.88 L 101 105.38 L 101.38 104.12 L 101.38 103.38 L 100.38 102.38 L 98.12 101.75 L 97.38 101.38 L 96.75 100.75 L 96.62 98.88 L 96.38 97.88 L 96.5 93.75 L 97 93 L 98.88 92.88 L 100.12 92.38 L 100.88 91.62 L 101.12 91.12 L 101.12 90.25 L 100.62 89.25 L 100 88.75 L 98.88 88.25 L 97.25 88.12 L 96.75 87.62 L 96.25 84.75 L 95.62 83.88 L 94.5 83.38 Z M 62.75 80.88 L 62.12 81.5 L 61.62 82.75 L 61.75 88.12 L 61.88 88.25 L 61.75 96.25 L 61.62 96.38 L 61.62 98.12 L 61.75 98.25 L 61.62 103.12 L 61.75 104.38 L 62.25 105.62 L 62.75 106 L 64.38 106.38 L 65.75 106.12 L 66.25 105.62 L 66.75 104.38 L 66.75 101.12 L 67.62 100 L 68.25 99.88 L 70 101.5 L 70.62 102.62 L 71.75 103.62 L 72 104.12 L 73.62 105.75 L 74.88 106.38 L 76 106.38 L 77.12 106 L 78 104.88 L 78.12 104.38 L 78 103.38 L 77.12 102 L 76.25 101.12 L 72.62 96.5 L 72.88 95.88 L 74.75 94.12 L 75.38 93.75 L 77 91.75 L 77.38 90.88 L 77.38 89.88 L 77.12 89.25 L 75.75 88.25 L 73.88 88.38 L 72.38 89.25 L 71.25 90.25 L 70.38 91.38 L 67.75 94 L 67.12 94.12 L 66.88 93.88 L 66.88 91.5 L 66.62 90.75 L 66.75 87.12 L 66.88 87 L 66.75 86.12 L 66.88 83.62 L 66.62 82 L 65.75 80.88 L 65 80.5 L 63.88 80.5 Z M 11.5 81 L 10.62 81.75 L 10.25 82.62 L 10.25 83.88 L 10.62 84.62 L 11.38 85.38 L 12.38 85.75 L 17.38 85.88 L 18 86.38 L 18.12 86.75 L 18.12 92.75 L 18.25 92.88 L 18.12 93.38 L 18.12 96.38 L 18.25 96.5 L 18.12 103.62 L 18.5 104.88 L 19.25 106 L 20.25 106.38 L 22.38 106.25 L 23.12 105.5 L 23.75 103.88 L 23.75 102 L 23.88 101.88 L 23.75 88.12 L 24 86.5 L 24.62 85.88 L 25.12 85.75 L 27.62 85.75 L 27.88 85.88 L 29.88 85.62 L 30.88 85.25 L 31.88 83.75 L 31.75 82.38 L 30.62 81 L 29.5 80.5 L 26.25 80.5 L 26.12 80.62 L 14.12 80.5 Z M 82.88 80 L 81.75 80.5 L 81.12 81 L 80.5 82.62 L 80.62 83.38 L 81.12 84.62 L 81.62 85.12 L 83 85.88 L 84.38 85.88 L 85.88 84.88 L 86.38 83.38 L 86.38 82.25 L 86 81.25 L 85.12 80.38 L 84.12 80 Z M 36 80 L 35.12 80.25 L 34.25 80.88 L 33.62 82.38 L 33.62 83 L 34.25 84.62 L 34.88 85.25 L 35.88 85.88 L 36.88 86 L 37.75 85.75 L 39.12 84.62 L 39.62 82.75 L 39.12 81.25 L 38.5 80.62 L 37.62 80.12 Z M 27.62 24.38 L 26.88 26.25 L 26.38 28.75 L 26.38 30.75 L 26.5 30.88 L 26.38 39.5 L 26.5 40.12 L 27.12 41.12 L 29.5 42.25 L 31.62 44.12 L 32.38 46.38 L 32.38 47.75 L 31.5 50.12 L 29.88 51.75 L 27.25 52.88 L 26.62 53.62 L 26.38 55.12 L 26.5 56.25 L 26.38 62 L 26.25 62.12 L 26.38 66.12 L 27.12 68.75 L 27.88 70.25 L 28.38 70.88 L 30 72.12 L 32.25 72.62 L 41 72.62 L 41.12 72.75 L 43.12 72.62 L 43.25 72.75 L 45.25 72.62 L 45.38 72.75 L 46 72.62 L 46.25 72.75 L 46.38 72.62 L 50.75 72.62 L 50.88 72.75 L 51.75 72.62 L 52.12 72.75 L 52.5 72.62 L 53.38 72.75 L 57.38 72.75 L 57.5 72.62 L 95.75 72.75 L 98.38 72 L 100.12 70.25 L 101.12 68.12 L 101.62 65.88 L 101.62 54.5 L 100.88 52.88 L 98.25 51.62 L 96.88 50.38 L 96.38 49.5 L 95.88 47.62 L 96.12 45.25 L 96.62 44.12 L 97.88 42.75 L 100.88 41.25 L 101.25 40.88 L 101.62 39.88 L 101.62 32.5 L 101.75 32.38 L 101.75 30 L 101.88 29.88 L 101.75 28.38 L 101.25 26 L 100.75 24.62 L 100.25 23.88 L 98.88 22.5 L 97.88 22 L 96.12 21.5 L 32.25 21.38 L 31.75 21.62 L 30.38 21.88 L 29.38 22.38 Z M 36.38 32 L 36.75 30.62 L 37.12 29.88 L 37.75 29.25 L 39.5 28.5 L 41.12 28.25 L 52 28.38 L 52.12 28.5 L 88 28.38 L 89.12 28.62 L 90.5 29.25 L 91.38 30.38 L 92 32 L 92 35.88 L 91.75 36.88 L 91.12 37.88 L 90.5 38.5 L 89.88 38.75 L 88.62 39 L 87.62 38.88 L 86.88 39 L 79.5 39 L 79.38 39.12 L 79.12 39 L 76.75 39 L 75.12 39.75 L 74.5 40.25 L 74.12 41.88 L 74.12 46.38 L 74.25 46.5 L 74.12 47.5 L 74.25 48.38 L 74.12 49.38 L 74.12 65.88 L 73.88 66.75 L 73 67.88 L 71.5 68.5 L 69.25 68.5 L 69.12 68.62 L 64 68.5 L 63.88 68.62 L 61.25 68.62 L 61.12 68.75 L 58.25 68.75 L 56.5 68.5 L 55.38 67.88 L 54.62 67 L 54.25 66 L 54.12 64.88 L 54.25 41.88 L 53.88 40.25 L 52.5 39.25 L 51 39 L 50.62 39.12 L 39.38 39 L 38.38 38.75 L 37.25 38 L 36.5 36.75 Z M 60.88 43.25 L 60.25 43.5 L 59.75 44 L 59.12 45.38 L 59.12 47.5 L 58.88 49.38 L 58.88 51 L 59 51.12 L 58.88 53.62 L 59.5 55.88 L 60.62 56.75 L 61.62 56.88 L 63.88 56 L 64.5 55.38 L 65.25 55 L 65.88 54.38 L 69.38 52 L 70.25 51 L 70.5 50.5 L 70.5 50 L 70 48.75 L 69.38 48.12 L 68.25 47.5 L 65.38 45.38 L 64.62 45.12 L 62.5 43.5 L 61.75 43.25 Z" fill="#ee5027" fill-rule="evenodd"/>
</svg>
